<?xml version="1.0" standalone="no"?><!DOCTYPE svg PUBLIC "-//W3C//DTD SVG 1.1//EN" "http://www.w3.org/Graphics/SVG/1.1/DTD/svg11.dtd"><svg t="1518142424402" class="icon" style="" viewBox="0 0 1024 1024" version="1.1" xmlns="http://www.w3.org/2000/svg" p-id="16280" xmlns:xlink="http://www.w3.org/1999/xlink" width="25" height="25"><defs><style type="text/css"></style></defs><path d="M877.420085 247.768013h-604.99909l130.440841-130.511449c15.97995-15.910365 15.97995-41.774429 0-57.685817-15.911388-15.910365-41.704844-15.910365-57.684794 0L157.611156 247.13868c-21.061688 18.86158-21.061688 51.598168-21.061689 63.373353v473.390657c0 22.429849 18.362206 40.793078 40.826848 40.793078h700.04377c22.430872 0 40.794102-18.36323 40.794102-40.793078V288.562115c0-22.428825-18.364253-40.794102-40.794102-40.794102zM352.04752 646.941342c-58.493206 0-105.839537-47.382147-105.839537-105.977683 0-58.31515 47.347354-105.767905 105.839537-105.767906 58.456367 0 105.83749 47.452755 105.83749 105.767906 0 58.59656-47.382147 105.977683-105.83749 105.977683z m439.440427 7.990998H579.565327c-13.494339 0-24.463158-11.003612-24.463158-24.53172 0-13.4575 10.970866-24.462135 24.463158-24.462134h211.92262c13.529131 0 24.462135 11.004635 24.462135 24.462134 0 13.528108-10.934027 24.531719-24.462135 24.53172z m0-165.416424H579.565327c-13.494339 0-24.463158-10.936073-24.463158-24.463158 0-13.4575 10.970866-24.532743 24.463158-24.532743h211.92262c13.529131 0 24.462135 11.07422 24.462135 24.532743 0 13.529131-10.934027 24.463158-24.462135 24.463158z" p-id="16281" fill="#31c27c"></path></svg>