<?xml version="1.0" standalone="no"?><!DOCTYPE svg PUBLIC "-//W3C//DTD SVG 1.1//EN" "http://www.w3.org/Graphics/SVG/1.1/DTD/svg11.dtd"><svg t="1518054603839" class="icon" style="" viewBox="0 0 1024 1024" version="1.1" xmlns="http://www.w3.org/2000/svg" p-id="11394" xmlns:xlink="http://www.w3.org/1999/xlink" width="32" height="32"><defs><style type="text/css"></style></defs><path d="M743.424 925.696l-111.104-273.92c-7.168-17.408-19.456-30.208-33.28-35.84-1.024-0.512-2.048-1.536-3.584-2.048l-125.44-60.416 29.696-157.184c2.56 0.512 5.632 1.024 8.192 1.024h180.736c20.992 0 38.4-17.408 38.4-38.4s-17.408-38.4-38.4-38.4h-174.592l10.24-54.784c7.68-40.448-18.944-79.872-59.392-87.552-7.168-1.536-14.336-1.536-20.992-1.024-2.56 0-4.608 0-7.168 0.512l-227.84 50.176c-0.512 0-1.024 0.512-1.536 0.512-14.848 2.048-26.112 13.312-26.112 26.624v133.632c-2.048 31.744 27.648 34.304 27.648 34.304 33.28 1.024 35.84-27.136 35.84-27.136v-108.032l128.512-28.16-52.224 273.92c-6.656 35.84 13.312 70.144 45.568 83.456 1.024 0.512 1.536 1.024 2.56 1.536l12.288 6.144-81.408 104.96-141.824-84.992c-20.48-12.288-46.592-5.632-58.88 14.848-12.288 20.48-5.632 46.592 14.848 58.88l180.736 108.544c13.824 8.192 30.208 7.68 43.52 0 7.168-2.56 13.312-6.656 18.432-13.312l113.664-146.944 79.872 38.4c3.584 1.536 7.168 3.072 10.752 3.584l100.864 248.32c11.776 29.184 39.424 45.568 61.952 36.352 22.528-7.168 31.232-38.4 19.456-67.584zM516.608 162.304c39.424 0 71.68-30.208 71.68-67.584 0-37.376-32.256-68.096-71.68-68.096s-71.68 30.208-71.68 68.096c0 36.864 32.256 67.584 71.68 67.584z" fill="#31c27c" p-id="11395"></path></svg>