<?xml version="1.0" standalone="no"?><!DOCTYPE svg PUBLIC "-//W3C//DTD SVG 1.1//EN" "http://www.w3.org/Graphics/SVG/1.1/DTD/svg11.dtd"><svg t="1518068666556" class="icon" style="" viewBox="0 0 1024 1024" version="1.1" xmlns="http://www.w3.org/2000/svg" p-id="4496" xmlns:xlink="http://www.w3.org/1999/xlink" width="20" height="20"><defs><style type="text/css"></style></defs><path d="M417.696 224c0-52.928 43.072-96 96-96s96 43.072 96 96-43.072 96-96 96S417.696 276.928 417.696 224z" p-id="4497" fill="#31c27c"></path><path d="M417.696 512c0-52.928 43.072-96 96-96s96 43.072 96 96-43.072 96-96 96S417.696 564.928 417.696 512z" p-id="4498" fill="#31c27c"></path><path d="M417.696 800c0-52.928 43.072-96 96-96s96 43.072 96 96-43.072 96-96 96S417.696 852.928 417.696 800z" p-id="4499" fill="#31c27c"></path></svg>